<?xml version="1.0" standalone="no"?>
<!DOCTYPE svg PUBLIC "-//W3C//DTD SVG 20010904//EN"
 "http://www.w3.org/TR/2001/REC-SVG-20010904/DTD/svg10.dtd">
<svg version="1.0" xmlns="http://www.w3.org/2000/svg"
 width="1774.000000pt" height="887.000000pt" viewBox="0 0 1774.000000 887.000000"
 preserveAspectRatio="xMidYMid meet">
<metadata>
Created by potrace 1.16, written by Peter Selinger 2001-2019
</metadata>
<g transform="translate(0.000000,887.000000) scale(0.100000,-0.100000)"
fill="#000000" stroke="none">
<path d="M2630 6299 c-115 -6 -176 -25 -260 -79 -110 -70 -206 -215 -229 -344
-15 -84 -15 -2355 0 -2428 28 -137 129 -273 248 -337 120 -63 73 -61 1206 -61
915 0 1038 2 1086 16 179 53 310 192 348 372 6 31 11 153 11 288 l0 235 -172
-3 c-95 -2 -552 -2 -1015 0 l-843 2 0 1170 0 1170 -77 1 c-43 0 -105 1 -138 2
-33 1 -107 -1 -165 -4z"/>
<path d="M3442 5658 c3 -573 5 -648 20 -693 10 -28 25 -59 33 -70 9 -11 13
-13 9 -5 -7 13 -5 13 9 1 20 -16 23 -36 5 -24 -15 9 44 -68 66 -86 8 -7 21 -9
27 -5 7 4 9 3 6 -3 -9 -14 41 -40 109 -58 49 -13 156 -15 686 -15 l628 0 -1
543 c-1 298 -4 529 -8 512 -7 -28 -8 -27 -15 19 -6 37 -10 46 -18 35 -7 -11
-11 -11 -15 -1 -2 6 -12 12 -20 12 -9 0 -13 6 -10 14 3 7 0 19 -6 25 -14 14
21 15 43 1 17 -11 40 5 40 29 0 14 -2 14 -10 1 -8 -12 -10 -11 -10 8 0 12 -4
22 -10 22 -5 0 -10 12 -10 28 0 21 2 24 10 12 15 -23 12 -5 -6 40 -20 49 -38
42 -29 -11 6 -32 4 -39 -10 -39 -22 0 -42 22 -62 67 -30 70 -28 81 14 85 l38
3 -55 53 c-30 30 -64 58 -75 64 -20 9 -20 9 -1 -6 11 -9 14 -16 8 -16 -7 0
-12 -7 -12 -15 0 -21 -22 -19 -47 4 -12 11 -24 17 -27 14 -10 -10 -7 6 5 28 5
11 15 17 22 13 8 -5 9 -4 2 4 -9 9 -107 42 -127 42 -5 0 -7 -3 -4 -8 2 -4 -14
-6 -36 -4 -28 3 -36 7 -27 13 8 5 -224 8 -541 8 -305 -1 -544 -5 -530 -9 l25
-8 -28 -1 c-19 -1 -31 -8 -37 -23 -8 -22 -9 -22 -9 4 -1 14 5 29 12 31 7 3 5
6 -6 6 -17 1 -18 -29 -15 -641z"/>
<path d="M6290 5005 l0 -1025 705 0 705 0 0 150 0 150 -525 0 -525 0 0 875 0
875 -180 0 -180 0 0 -1025z"/>
<path d="M10735 5630 c0 -220 -1 -400 -3 -400 -1 0 -30 28 -65 63 -34 35 -84
76 -111 92 -207 121 -483 118 -705 -8 -72 -41 -179 -143 -235 -225 -65 -95
-104 -198 -124 -324 -15 -101 -15 -116 2 -224 9 -64 28 -145 41 -180 66 -174
196 -319 358 -399 123 -60 198 -78 327 -78 176 1 311 56 440 180 41 40 77 73
79 73 2 0 2 -48 0 -107 -2 -60 -1 -109 4 -110 4 -2 77 -3 162 -3 l155 0 0
1025 0 1025 -163 0 -162 0 0 -400z m-312 -469 c159 -55 280 -201 308 -371 39
-236 -111 -474 -335 -535 -100 -27 -227 -17 -310 24 -242 119 -341 413 -221
653 55 108 140 184 253 224 88 31 222 33 305 5z"/>
<path d="M8428 5460 c-226 -41 -432 -192 -533 -390 -65 -128 -80 -197 -80
-365 1 -128 4 -161 24 -225 77 -251 249 -419 512 -502 65 -20 94 -23 234 -23
140 0 169 3 235 23 110 35 193 79 268 142 60 49 163 170 162 188 -1 4 -62 36
-137 72 l-136 65 -16 -25 c-40 -61 -98 -112 -168 -147 -67 -33 -83 -37 -177
-41 -127 -6 -213 17 -296 76 -90 64 -162 173 -177 267 l-6 35 588 0 588 0 -6
133 c-5 146 -24 222 -83 337 -87 172 -242 298 -439 360 -78 24 -274 36 -357
20z m227 -281 c81 -15 137 -43 200 -101 51 -47 96 -120 110 -179 l7 -27 -174
-6 c-221 -7 -360 -8 -525 0 l-131 6 14 39 c44 125 164 232 299 265 64 16 126
17 200 3z"/>
<path d="M11780 5449 c-134 -36 -238 -98 -336 -201 -221 -230 -275 -550 -140
-833 72 -151 184 -263 342 -341 112 -55 198 -74 334 -74 182 1 321 54 442 170
l58 56 0 -106 c0 -124 -16 -187 -63 -257 -73 -106 -188 -161 -352 -170 -198
-10 -341 51 -413 177 l-27 46 -147 -40 c-82 -22 -148 -44 -148 -50 0 -27 51
-116 98 -172 81 -98 225 -182 365 -213 94 -22 262 -32 350 -22 327 38 542 190
622 442 43 136 46 203 43 909 l-3 665 -157 3 -158 3 0 -39 c0 -22 -3 -66 -6
-98 l-6 -59 -63 60 c-119 116 -256 165 -449 164 -78 0 -133 -6 -186 -20z m375
-281 c65 -16 151 -67 205 -121 173 -173 167 -461 -14 -635 -95 -92 -193 -132
-321 -132 -76 0 -187 31 -249 69 -46 29 -130 120 -155 169 -67 130 -67 293 -1
422 35 68 67 106 131 154 111 84 258 111 404 74z"/>
<path d="M13590 5455 c-222 -44 -428 -200 -525 -399 -55 -111 -74 -184 -82
-301 -9 -153 14 -267 85 -415 28 -58 57 -95 127 -166 78 -78 104 -98 185 -137
107 -52 174 -71 308 -88 253 -32 532 67 682 243 87 101 105 138 67 138 -7 0
-66 25 -132 56 l-120 55 -18 -23 c-71 -89 -143 -143 -230 -170 -236 -73 -474
17 -572 215 -20 40 -38 89 -42 110 l-6 37 607 0 606 0 0 93 c-1 325 -168 588
-452 709 -131 55 -336 74 -488 43z m289 -280 c35 -9 86 -28 114 -42 85 -47
179 -168 189 -243 l3 -25 -430 0 c-424 0 -430 0 -427 20 7 46 59 129 113 180
115 110 271 149 438 110z"/>
<path d="M15384 5455 c-120 -26 -241 -102 -298 -187 l-35 -52 -3 110 -3 109
-167 3 -168 2 0 -730 0 -730 170 0 170 0 0 418 c0 442 3 469 49 561 34 66 112
138 189 174 63 29 74 31 189 32 l123 0 0 146 c0 144 0 147 -22 153 -37 9 -128
5 -194 -9z"/>
<path d="M8253 3220 c-117 -24 -191 -109 -213 -242 -22 -142 57 -271 190 -310
72 -21 180 -14 242 15 93 43 90 39 92 165 l2 111 -61 5 c-79 7 -185 3 -185 -6
0 -5 15 -8 33 -9 17 0 26 -3 19 -6 -10 -4 -10 -8 -1 -19 9 -11 8 -14 -7 -15
-11 -1 -25 -1 -31 0 -7 1 -13 -3 -13 -9 0 -6 30 -10 76 -10 l75 0 -3 -52 c-3
-52 -4 -54 -48 -76 -66 -34 -155 -28 -207 15 -49 39 -71 78 -79 136 -13 95 39
188 124 224 53 22 123 9 178 -33 36 -28 48 -32 64 -24 34 18 44 49 24 71 -48
53 -182 87 -271 69z"/>
<path d="M10180 3216 c-65 -14 -101 -32 -97 -49 1 -7 -5 -11 -14 -9 -41 6
-109 -134 -109 -224 0 -108 81 -225 177 -258 66 -23 170 -21 238 5 89 33 165
148 165 248 l0 39 -42 -1 c-32 -1 -44 3 -46 14 -2 9 5 19 15 22 10 2 26 8 36
12 13 6 17 2 18 -16 1 -19 2 -20 6 -6 8 33 -55 145 -99 178 -65 46 -158 63
-248 45z m173 -101 c22 -15 48 -47 63 -78 23 -45 26 -59 20 -116 -7 -82 -38
-130 -100 -159 -117 -55 -236 2 -266 127 -15 62 -3 122 36 181 33 50 75 69
149 70 48 0 68 -5 98 -25z"/>
<path d="M9048 2960 c-1 -143 -2 -268 -2 -277 -1 -14 9 -19 46 -21 l47 -3 3
103 3 103 56 3 56 3 60 -93 c33 -51 67 -99 76 -106 9 -8 35 -12 66 -10 l50 3
-30 35 c-17 19 -27 28 -23 20 7 -13 5 -13 -9 -1 -19 15 -23 26 -6 15 7 -4 10
-1 7 7 -3 8 -10 13 -16 12 -6 -2 -9 3 -6 10 2 7 -11 34 -31 60 -40 53 -43 67
-14 67 32 0 96 69 104 113 17 88 -23 161 -105 194 -47 19 -74 22 -192 23
l-138 0 -2 -260z m313 151 c21 -22 29 -39 29 -66 0 -74 -79 -114 -205 -103
l-40 3 -3 98 -3 97 96 0 c93 0 98 -1 126 -29z"/>
<path d="M11030 3021 c0 -214 5 -239 55 -299 39 -47 98 -65 198 -61 76 4 90 7
128 34 26 18 53 50 68 80 25 47 26 58 30 247 l3 198 -51 0 -51 0 0 -187 c0
-147 -3 -194 -15 -217 -8 -15 -13 -32 -10 -36 13 -21 -32 -33 -125 -34 -68 -1
-115 29 -130 83 -5 20 -10 116 -10 214 l0 177 -45 0 -45 0 0 -199z"/>
<path d="M12060 2940 l0 -280 45 0 44 0 3 98 3 97 105 6 c115 7 152 20 193 68
47 57 47 166 -1 222 -46 56 -96 69 -253 69 l-139 0 0 -280z m306 166 c37 -37
43 -70 20 -115 -21 -39 -56 -51 -151 -51 l-85 0 0 48 c0 26 3 71 6 100 l7 52
84 0 c83 0 86 -1 119 -34z"/>
</g>
</svg>
